<?xml version="1.0" standalone="no"?>
<!DOCTYPE svg PUBLIC "-//W3C//DTD SVG 20010904//EN"
 "http://www.w3.org/TR/2001/REC-SVG-20010904/DTD/svg10.dtd">
<svg version="1.0" xmlns="http://www.w3.org/2000/svg"
 width="700.000000pt" height="700.000000pt" viewBox="0 0 700.000000 700.000000"
 preserveAspectRatio="xMidYMid meet">
<metadata>
Created by potrace 1.14, written by Peter Selinger 2001-2017
</metadata>
<g transform="translate(0.000000,700.000000) scale(0.100000,-0.100000)"
fill="#000000" stroke="none">
<path d="M0 5870 l0 -1130 1160 0 1160 0 0 1130 0 1130 -1160 0 -1160 0 0
-1130z"/>
<path d="M2392 5873 l3 -1128 1125 0 1125 0 3 1128 2 1127 -1130 0 -1130 0 2
-1127z"/>
<path d="M4720 5875 l0 -1125 1140 0 1140 0 0 1125 0 1125 -1140 0 -1140 0 0
-1125z"/>
<path d="M0 3550 l0 -1130 1160 0 1160 0 0 1130 0 1130 -1160 0 -1160 0 0
-1130z"/>
<path d="M2397 4673 c-4 -3 -7 -512 -7 -1130 l0 -1123 1130 0 1130 0 -2 1128
-3 1127 -1121 3 c-616 1 -1124 -1 -1127 -5z"/>
<path d="M4720 3550 l0 -1130 1140 0 1140 0 0 1130 0 1130 -1140 0 -1140 0 0
-1130z"/>
<path d="M0 1175 l0 -1175 1160 0 1160 0 0 1175 0 1175 -1160 0 -1160 0 0
-1175z"/>
<path d="M2390 1175 l0 -1175 1130 0 1130 0 0 1175 0 1175 -1130 0 -1130 0 0
-1175z"/>
<path d="M4720 1175 l0 -1175 1140 0 1140 0 0 1175 0 1175 -1140 0 -1140 0 0
-1175z"/>
</g>
</svg>
